<svg id="svg" xmlns="http://www.w3.org/2000/svg" xmlns:xlink="http://www.w3.org/1999/xlink" width="400" height="322.5806451612903" viewBox="0, 0, 400,322.5806451612903"><g id="svgg"><path id="path0" d="M0.000 14.097 C 0.000 37.943,184.540 322.581,200.000 322.581 C 215.460 322.581,400.000 37.943,400.000 14.097 C 400.000 4.509,336.023 0.000,200.000 0.000 C 63.977 0.000,0.000 4.509,0.000 14.097 M140.747 74.194 C 124.742 100.806,110.415 124.338,108.909 126.485 C 105.370 131.529,51.613 44.719,51.613 33.961 C 51.613 29.476,78.216 25.806,110.730 25.806 L 169.847 25.806 140.747 74.194 M348.387 33.493 C 348.387 51.004,303.140 116.100,293.258 112.806 C 287.367 110.843,270.663 90.465,256.136 67.521 L 229.724 25.806 289.055 25.806 C 321.688 25.806,348.387 29.265,348.387 33.493 M251.437 129.376 C 266.689 158.264,265.283 167.554,239.092 210.951 C 202.328 271.867,197.317 271.800,160.399 209.892 L 130.512 159.773 163.960 103.684 C 200.497 42.413,206.447 44.160,251.437 129.376 " stroke="none" fill="#000000" fill-rule="evenodd"></path></g></svg>