<svg xmlns="http://www.w3.org/2000/svg"
 xmlns:xlink="http://www.w3.org/1999/xlink"
 width="24px" height="24px"  viewBox="0 0 24 24">
<path fill-rule="evenodd"  fill="#a3acb2"
 d="M22.978027,4.045536 C22.978027,4.045536 22.978027,4.0666504 22.978027,4.0666504 C22.978027,4.080921 22.985474,4.087862 22.999268,4.087862 C22.999268,4.087862 22.999268,14.625292 22.999268,14.625292 C22.999268,15.203981 22.795288,15.697529 22.386353,16.106424 C21.992065,16.529688 21.498535,16.741222 20.90686,16.741222 C20.90686,16.741222 9.17688,16.741222 9.17688,16.741222 C9.17688,16.741222 4.1046143,21.67152 4.1046143,21.67152 C4.005127,21.770836 3.8721924,21.855492 3.703003,21.925285 C3.5760498,21.982468 3.4282227,22.010036 3.2592773,22.010036 C3.2592773,22.010036 3.1323242,22.010036 3.1323242,22.010036 C3.0753174,22.010036 3.033081,22.003681 3.0054932,21.988823 C2.9770508,21.97504 2.9348145,21.957054 2.8787842,21.93594 C2.8216553,21.914825 2.779419,21.904171 2.7519531,21.904171 C2.5405273,21.834278 2.3641357,21.678852 2.2236328,21.438675 C2.0682373,21.241901 1.9910889,21.01551 1.9910889,20.76155 C1.9910889,20.76155 1.9910889,4.087862 1.9910889,4.087862 C1.9910889,4.087862 1.9910889,4.0666504 1.9910889,4.0666504 C1.9910889,4.0666504 1.9910889,4.045536 1.9910889,4.045536 C1.9910889,4.045536 1.9910889,4.0243244 1.9910889,4.0243244 C1.9910889,4.0243244 11.64978,12.064981 11.64978,12.064981 C11.64978,12.064981 11.670898,12.064981 11.670898,12.064981 C11.670898,12.064981 11.713257,12.107307 11.713257,12.107307 C11.726929,12.107307 11.741577,12.114737 11.755371,12.128519 C11.755371,12.128519 11.776611,12.149633 11.776611,12.149633 C11.776611,12.149633 11.797607,12.149633 11.797607,12.149633 C11.797607,12.149633 11.818726,12.170748 11.818726,12.170748 C11.818726,12.170748 11.839966,12.170748 11.839966,12.170748 C11.839966,12.170748 11.882202,12.213074 11.882202,12.213074 C11.882202,12.213074 11.903442,12.213074 11.903442,12.213074 C11.903442,12.213074 11.924561,12.213074 11.924561,12.213074 C11.924561,12.227346 11.931885,12.234287 11.945679,12.234287 C11.959351,12.248558 11.974243,12.255402 11.987915,12.255402 C11.987915,12.255402 12.030029,12.255402 12.030029,12.255402 C12.043945,12.269672 12.058716,12.276613 12.072388,12.276613 C12.072388,12.276613 12.093506,12.297728 12.093506,12.297728 C12.093506,12.297728 12.114746,12.297728 12.114746,12.297728 C12.114746,12.297728 12.156982,12.297728 12.156982,12.297728 C12.156982,12.297728 12.178101,12.297728 12.178101,12.297728 C12.178101,12.312 12.185547,12.318939 12.199219,12.318939 C12.199219,12.318939 12.262695,12.318939 12.262695,12.318939 C12.262695,12.318939 12.326172,12.318939 12.326172,12.318939 C12.339844,12.333212 12.360962,12.340054 12.389404,12.340054 C12.389404,12.340054 12.431641,12.340054 12.431641,12.340054 C12.431641,12.340054 12.495117,12.340054 12.495117,12.340054 C12.523682,12.340054 12.5448,12.333212 12.558594,12.318939 C12.558594,12.318939 12.621948,12.318939 12.621948,12.318939 C12.621948,12.318939 12.685303,12.318939 12.685303,12.318939 C12.685303,12.318939 12.706421,12.297728 12.706421,12.297728 C12.706421,12.297728 12.727661,12.297728 12.727661,12.297728 C12.727661,12.297728 12.748779,12.297728 12.748779,12.297728 C12.777344,12.297728 12.80481,12.283945 12.833252,12.255402 C12.833252,12.255402 12.87561,12.255402 12.87561,12.255402 C12.889282,12.255402 12.904175,12.248558 12.917969,12.234287 C12.917969,12.234287 12.939087,12.234287 12.939087,12.234287 C12.939087,12.234287 12.960083,12.213074 12.960083,12.213074 C12.960083,12.213074 12.981323,12.213074 12.981323,12.213074 C12.981323,12.213074 13.0234375,12.170748 13.0234375,12.170748 C13.052124,12.170748 13.07959,12.157063 13.108032,12.128519 C13.121826,12.114737 13.136597,12.107307 13.150391,12.107307 C13.150391,12.107307 13.171509,12.086193 13.171509,12.086193 C13.171509,12.086193 13.192627,12.086193 13.192627,12.086193 C13.192627,12.086193 13.192627,12.064981 13.192627,12.064981 C13.192627,12.064981 13.213745,12.064981 13.213745,12.064981 C13.213745,12.064981 22.978027,4.0243244 22.978027,4.0243244 C22.978027,4.0243244 22.978027,4.045536 22.978027,4.045536 ZM12.431641,9.441231 C12.431641,9.441231 3.449463,2.0564861 3.449463,2.0564861 C3.505371,2.0564861 3.5477295,2.0496435 3.5760498,2.0353718 C3.6322021,2.0353718 3.7166748,2.0215893 3.829834,1.9930458 C3.829834,1.9930458 21.033691,1.9930458 21.033691,1.9930458 C21.062134,2.0073166 21.104492,2.0142574 21.1604,2.0142574 C21.27356,2.042801 21.358154,2.0564861 21.414062,2.0564861 C21.414062,2.0564861 12.431641,9.441231 12.431641,9.441231 Z"/>
</svg>