<svg width="11" height="16" xmlns="http://www.w3.org/2000/svg" xmlns:xlink="http://www.w3.org/1999/xlink" xmlns:svgjs="http://svgjs.com/svgjs" viewBox="0.166 0 10.668 16"><svg xmlns="http://www.w3.org/2000/svg" width="11" height="16" viewBox="2.009 1.013 9.989 14.981" fill="#0084b4"><path fill="#0084B4" paint-order="stroke fill markers" fill-rule="evenodd" d="M6.995 1.013c1.36 0 2.539.48 3.538 1.441.953.95 1.441 2.124 1.464 3.524-.023.37-.064.706-.122 1.007a7.071 7.071 0 0 1-.296.937c-.081.232-.285.683-.61 1.355L9.8 11.74c-1.08 2.234-1.772 3.524-2.074 3.872-.174.173-.302.277-.383.312a.778.778 0 0 1-.349.07c-.15 0-.261-.024-.331-.07a1.265 1.265 0 0 1-.384-.312c-.15-.162-.43-.631-.836-1.406-1.034-2.014-1.842-3.658-2.423-4.93l-.627-1.355a5.22 5.22 0 0 0-.14-.468 2.537 2.537 0 0 1-.122-.469C2.04 6.545 2 6.21 2.011 5.978c-.012-1.365.476-2.54 1.463-3.524.965-.96 2.138-1.44 3.521-1.44zm2.736 6.128l.018-.017c.104-.232.163-.417.174-.556l.052-.295a.632.632 0 0 0 0-.295c.012-.798-.279-1.504-.871-2.118a2.858 2.858 0 0 0-2.092-.868c-.813 0-1.522.29-2.126.868-.57.567-.866 1.273-.889 2.118 0 .035.003.084.009.148a.695.695 0 0 0 .026.147c0 .081.012.18.035.295.081.301.145.487.192.556l-.018.017c.267.556.634.99 1.098 1.302.477.336 1.034.504 1.673.504.628 0 1.18-.168 1.656-.504.512-.359.866-.793 1.063-1.302z"/></svg></svg>