<svg xmlns="http://www.w3.org/2000/svg"
 xmlns:xlink="http://www.w3.org/1999/xlink"
 width="23px" height="20px"  viewBox="0 0 23 20">
<path fill-rule="evenodd"  fill="#55acee"
 d="M21.97644,3.987667 C21.749573,4.365282 21.442627,4.763912 21.055725,5.183462 C20.74878,5.519043 20.375,5.861761 19.934692,6.211321 C19.934692,6.211321 19.934692,6.337225 19.934692,6.337225 C19.934692,6.337225 19.934692,6.484047 19.934692,6.484047 C19.934692,6.55394 19.941284,6.602913 19.95459,6.630871 C19.95459,6.630871 19.95459,6.7776947 19.95459,6.7776947 C19.95459,8.218163 19.694458,9.6621475 19.17395,11.109653 C18.653503,12.557062 17.912842,13.854227 16.951965,15.00095 C15.924316,16.231644 14.676697,17.203588 13.208618,17.916882 C11.740601,18.630077 10.099182,18.986675 8.284302,18.986675 C7.1098633,18.986675 6.0023193,18.818933 4.9612427,18.483253 C3.8936768,18.147575 2.906128,17.672112 1.9985352,17.056765 C2.052002,17.070744 2.132019,17.077782 2.2387695,17.077782 C2.4522705,17.10574 2.6124878,17.119717 2.7192993,17.119717 C2.7192993,17.119717 2.9794312,17.119717 2.9794312,17.119717 C3.9135742,17.119717 4.827881,16.958916 5.721985,16.637215 C6.5493774,16.32959 7.330017,15.882084 8.064026,15.294695 C7.209961,15.280716 6.4158325,14.986973 5.681946,14.413561 C4.9612427,13.854227 4.480774,13.147972 4.2406006,12.294893 C4.440796,12.336828 4.567566,12.357746 4.6210327,12.357746 C4.6210327,12.357746 4.820984,12.357746 4.820984,12.357746 C4.861206,12.371725 4.9211426,12.378763 5.0012207,12.378763 C5.121338,12.378763 5.2147827,12.371725 5.281555,12.357746 C5.414978,12.357746 5.6018677,12.32979 5.842041,12.273876 C5.8686523,12.273876 5.9088135,12.266838 5.962097,12.252859 C6.015625,12.23888 6.055481,12.231941 6.0822144,12.231941 C5.1346436,12.036144 4.354004,11.539663 3.7400513,10.7425 C3.112793,9.945335 2.7993774,9.036343 2.7993774,8.015425 C2.7993774,8.015425 2.7993774,7.9944077 2.7993774,7.9944077 C2.7993774,7.9944077 2.7993774,7.9734898 2.7993774,7.9734898 C2.7993774,7.9734898 2.7993774,7.9524727 2.7993774,7.9524727 C3.0529175,8.120312 3.3464966,8.246216 3.6801758,8.330088 C4.0270996,8.4419155 4.354004,8.497927 4.6610107,8.497927 C4.0736694,8.078377 3.6333618,7.567917 3.3398438,6.966549 C3.0061035,6.351204 2.8393555,5.665867 2.8393555,4.910736 C2.8393555,4.491186 2.8859253,4.113571 2.9794312,3.777893 C3.032898,3.5401611 3.1662598,3.1975403 3.3798218,2.7500343 C4.4207764,4.092554 5.661804,5.14143 7.1031494,5.896658 C8.584534,6.707802 10.15918,7.155308 11.827393,7.239277 C11.7873535,6.9455338 11.767456,6.784733 11.767456,6.756775 C11.740601,6.560978 11.727295,6.400177 11.727295,6.274273 C11.727295,5.085516 12.127686,4.071636 12.928345,3.2325363 C13.729126,2.3934364 14.696594,1.9738865 15.831055,1.9738865 C16.418213,1.9738865 16.971985,2.0927525 17.492432,2.3304844 C18.01294,2.5961723 18.45996,2.9318523 18.83374,3.3374233 C19.260742,3.2394753 19.714417,3.0996914 20.194824,2.9178734 C20.595215,2.7640123 21.008911,2.5542374 21.435913,2.2885485 C21.27594,2.7919693 21.042236,3.2465134 20.735474,3.6520863 C20.388367,4.071636 20.021423,4.407217 19.634338,4.659025 C20.034729,4.589035 20.43518,4.505165 20.835388,4.407217 C21.142334,4.323345 21.522705,4.183464 21.97644,3.987667 Z"/>
</svg>