<svg xmlns="http://www.w3.org/2000/svg"
 xmlns:xlink="http://www.w3.org/1999/xlink"
 width="24px" height="26px"  viewBox="0 0 24 26">
<path fill-rule="evenodd"  fill="#ffffff"
 d="M1.9915771,14.996262 C1.9915771,14.996262 1.9915771,7.010933 1.9915771,7.010933 C1.9915771,6.458147 2.1844482,5.984247 2.5715332,5.589134 C2.9575195,5.1946087 3.4274902,4.9967594 3.9804688,4.9967594 C3.9804688,4.9967594 8.9765625,4.9967594 8.9765625,4.9967594 C9.260742,4.9967594 9.501099,5.095684 9.698853,5.292948 C9.896606,5.490797 9.994751,5.7236404 9.994751,5.991969 C9.994751,6.276329 9.896606,6.5173836 9.698853,6.7147446 C9.501099,6.912594 9.260742,7.010933 8.9765625,7.010933 C8.9765625,7.010933 3.9804688,7.010933 3.9804688,7.010933 C3.9804688,7.010933 3.9804688,14.996262 3.9804688,14.996262 C3.9804688,15.280621 3.8809814,15.521677 3.6844482,15.718939 C3.4866943,15.916885 3.253662,16.015127 2.985962,16.015127 C2.7172852,16.015127 2.4840088,15.916885 2.2873535,15.718939 C2.0897217,15.521677 1.9915771,15.280621 1.9915771,14.996262 ZM8.739868,13.645628 C6.8289795,16.473679 5.408325,19.103882 4.477661,21.536236 C4.303711,22.010136 4.173462,22.433105 4.087036,22.803978 C3.9993896,23.175922 3.9638672,23.460281 3.9804688,23.656956 C3.9958496,23.854805 4.0515137,23.96976 4.14624,24.000553 C4.2717285,24.047962 4.4813232,23.893906 4.7738037,23.538582 C5.0649414,23.183056 5.401245,22.705639 5.7801514,22.104954 C6.6324463,20.80994 7.248047,19.853832 7.626953,19.237803 C9.505859,16.2207 11.383545,14.554327 13.262451,14.238003 C13.277832,14.238003 13.286133,14.23028 13.286133,14.214346 C14.28064,14.08815 15.373291,13.701345 16.565552,13.053253 C17.757812,12.405746 18.447998,11.647488 18.637451,10.778475 C17.485474,11.204966 16.388062,11.394604 15.346191,11.347195 C15.346191,11.347195 15.535522,11.110245 15.535522,11.110245 C15.662231,10.968016 15.867065,10.794506 16.151245,10.588934 C16.435303,10.383949 16.734985,10.233509 17.051025,10.138691 C18.045532,9.822952 18.835083,9.491184 19.418945,9.143482 C20.002563,8.796366 20.54712,8.282778 21.052612,7.603306 C21.336792,7.208782 21.573608,6.7348824 21.76294,6.181509 C21.210205,6.4818993 20.599243,6.7229557 19.927979,6.9042854 C19.256714,7.0861034 18.700195,7.161371 18.258667,7.129406 C18.574707,6.750229 19.122803,6.2804337 19.904297,5.7194376 C20.685791,5.1591253 21.218384,4.7520876 21.502563,4.4992046 C21.944214,4.1200256 22.287598,3.7094688 22.532593,3.267045 C22.77771,2.8251095 22.914917,2.5247192 22.9469,2.3665571 C22.979004,2.2089815 22.994263,2.0821972 22.994263,1.9874763 C17.911743,3.1567812 13.159546,7.0428963 8.739868,13.645628 ZM11.285278,21.713947 C11.0876465,21.517273 10.989258,21.28384 10.989258,21.014927 C10.989258,20.730568 11.0876465,20.493618 11.285278,20.304077 C11.483032,20.114536 11.715088,20.019718 11.983765,20.019718 C11.983765,20.019718 19.987183,20.019718 19.987183,20.019718 C19.987183,20.019718 19.987183,16.015127 19.987183,16.015127 C19.987183,15.7308655 20.08545,15.490299 20.283081,15.29245 C20.480713,15.095186 20.71289,14.996262 20.981567,14.996262 C21.250366,14.996262 21.482422,15.095186 21.680176,15.29245 C21.87793,15.490299 21.976074,15.7308655 21.976074,16.015127 C21.976074,16.015127 21.976074,20.019718 21.976074,20.019718 C21.976074,20.57299 21.783081,21.043373 21.395996,21.429588 C21.008911,21.816978 20.54004,22.010136 19.987183,22.010136 C19.987183,22.010136 11.983765,22.010136 11.983765,22.010136 C11.715088,22.010136 11.483032,21.911797 11.285278,21.713947 Z"/>
</svg>