<svg xmlns="http://www.w3.org/2000/svg"
 xmlns:xlink="http://www.w3.org/1999/xlink"
 width="23px" height="24px"  viewBox="0 0 23 24">
<path fill-rule="evenodd"  fill="#66757f"
 d="M16.766815,9.45042 C16.766815,9.45042 15.964722,13.962341 15.964722,13.962341 C15.824036,14.767326 15.964722,15.332134 16.386917,15.656963 C16.62613,15.840542 16.94989,15.932331 17.358002,15.932331 C17.949036,15.932331 18.448578,15.720503 18.856705,15.296846 C19.419662,14.703789 19.70102,13.7646885 19.70102,12.4795475 C19.70102,10.220116 18.898834,8.285416 17.294662,6.6755447 C15.690399,5.065674 13.762482,4.260787 11.510788,4.260787 C9.245117,4.260787 7.3099823,5.065674 5.705719,6.6755447 C4.1014557,8.285416 3.299286,10.220116 3.299286,12.4795475 C3.299286,14.767326 4.1014557,16.702026 5.705719,18.283648 C7.3382263,19.893518 9.273193,20.698406 11.510788,20.698406 C12.341034,20.698406 13.115051,20.59254 13.832687,20.380713 C14.508179,20.18296 15.197739,19.851095 15.901459,19.385113 C15.957687,19.328613 16.056213,19.272112 16.1969,19.21561 C16.267365,19.18736 16.379883,19.173285 16.534637,19.173285 C16.731705,19.173285 16.914688,19.21561 17.083527,19.300362 C17.252441,19.399189 17.38617,19.526266 17.484695,19.68169 C17.653442,19.935844 17.716873,20.21825 17.67456,20.529003 C17.632416,20.811407 17.470612,21.058521 17.189087,21.270351 C16.30246,21.877583 15.408798,22.315315 14.508179,22.583645 C13.579407,22.85197 12.580246,22.986183 11.510788,22.986183 C8.639847,22.986183 6.170059,21.962334 4.1014557,19.914633 C3.130371,18.954418 2.3740234,17.831741 1.8321838,16.5466 C1.290329,15.261559 1.0196228,13.905842 1.0196228,12.4795475 C1.0196228,11.067429 1.290329,9.718748 1.8321838,8.433706 C2.3740234,7.1486626 3.130371,6.0189476 4.1014557,5.044462 C5.0725403,4.070074 6.1947784,3.3145514 7.4682617,2.7779922 C8.741974,2.2413368 10.089355,1.9730082 11.510788,1.9730082 C12.932068,1.9730082 14.279602,2.2413368 15.553162,2.7779922 C16.82663,3.3145514 17.949036,4.070074 18.920135,5.044462 C19.891052,6.0189476 20.643951,7.1451435 21.178757,8.423149 C21.71341,9.701153 21.980942,11.053253 21.980942,12.4795475 C21.980942,14.470749 21.326477,15.918255 20.01764,16.821968 C19.159332,17.429298 18.202332,17.732914 17.146957,17.732914 C16.274399,17.732914 15.528442,17.612877 14.909348,17.372799 C14.2478485,17.13272 13.734146,16.765564 13.368347,16.271235 C12.875839,16.680815 12.355103,16.991468 11.806229,17.203297 C11.215195,17.429298 10.624161,17.542202 10.033218,17.542202 C8.893127,17.542202 7.9222107,17.069181 7.120117,16.122946 C6.3320312,15.219233 5.9378967,14.124805 5.9378967,12.839664 C5.9378967,11.187466 6.423523,9.803499 7.3944397,8.6878605 C8.365524,7.600569 9.561584,7.0568733 10.983017,7.0568733 C11.630447,7.0568733 12.228424,7.1557007 12.777313,7.3534527 C13.269806,7.5370293 13.7200775,7.8759346 14.128281,8.370167 C14.268967,8.116013 14.416855,7.939474 14.571594,7.8406467 C14.852951,7.65707 15.14151,7.579357 15.437119,7.607607 C15.437119,7.607607 15.584839,7.6288185 15.584839,7.6288185 C15.894516,7.6288185 16.168823,7.769972 16.408035,8.052475 C16.71762,8.41963 16.83728,8.8856125 16.766815,9.45042 ZM10.8563385,14.979155 C11.574051,14.979155 12.193314,14.647287 12.713882,13.983555 C13.220627,13.362244 13.473831,12.58551 13.473831,11.653448 C13.473831,11.046215 13.305084,10.537809 12.967346,10.128328 C12.615524,9.732922 12.136932,9.5351715 11.531906,9.5351715 C10.78595,9.5351715 10.152786,9.8529625 9.63205,10.488445 C9.08316,11.123928 8.808838,11.87945 8.808838,12.754913 C8.808838,13.404572 8.998703,13.941227 9.378754,14.364784 C9.716507,14.774364 10.209,14.979155 10.8563385,14.979155 Z"/>
</svg>