<svg xmlns="http://www.w3.org/2000/svg"
 xmlns:xlink="http://www.w3.org/1999/xlink"
 width="21px" height="23px"  viewBox="0 0 21 23">
<path fill-rule="evenodd"  fill="#66757f"
 d="M15.144196,13.504667 C15.144196,13.504667 17.925446,13.504667 17.925446,13.504667 C18.304565,13.504667 18.642822,13.640347 18.940582,13.911804 C19.211273,14.210337 19.34665,14.549534 19.34665,14.929495 C19.34665,15.323044 19.211273,15.655497 18.940582,15.926952 C18.656311,16.211899 18.318054,16.35442 17.925446,16.35442 C17.925446,16.35442 14.859924,16.35442 14.859924,16.35442 C14.859924,16.35442 14.514801,19.733303 14.514801,19.733303 C14.501312,20.08609 14.352478,20.391464 14.068207,20.649235 C13.810974,20.893517 13.492981,21.015705 13.114044,21.015705 C13.114044,21.015705 13.073456,21.015705 13.073456,21.015705 C13.073456,21.015705 13.032837,21.015705 13.032837,21.015705 C13.032837,21.015705 12.992157,21.015705 12.992157,21.015705 C12.992157,21.015705 12.971985,21.015705 12.971985,21.015705 C12.592865,21.002022 12.274963,20.825676 12.017731,20.486382 C11.747009,20.174358 11.638794,19.828318 11.692871,19.448357 C11.692871,19.448357 11.9973755,16.35442 11.9973755,16.35442 C11.9973755,16.35442 8.038605,16.35442 8.038605,16.35442 C8.038605,16.35442 7.693573,19.733303 7.693573,19.733303 C7.6394043,20.113262 7.4837036,20.418541 7.2265625,20.649235 C6.98291,20.893517 6.664795,21.015705 6.2724,21.015705 C6.2724,21.015705 6.2520447,21.015705 6.2520447,21.015705 C6.2520447,21.015705 6.211548,21.015705 6.211548,21.015705 C6.211548,21.015705 6.1708374,21.015705 6.1708374,21.015705 C6.1708374,21.015705 6.130249,21.015705 6.130249,21.015705 C5.7513123,21.002022 5.4332275,20.825676 5.1761475,20.486382 C4.9324036,20.215023 4.8242493,19.868982 4.851288,19.448357 C4.851288,19.448357 5.1761475,16.35442 5.1761475,16.35442 C5.1761475,16.35442 2.4353333,16.35442 2.4353333,16.35442 C2.0294495,16.35442 1.6976929,16.211899 1.4406433,15.926952 C1.1563721,15.669085 1.0143127,15.336632 1.0143127,14.929495 C1.0143127,14.536045 1.1563721,14.196749 1.4406433,13.911804 C1.7113342,13.640347 2.0429077,13.504667 2.4353333,13.504667 C2.4353333,13.504667 5.4603577,13.504667 5.4603577,13.504667 C5.4603577,13.504667 5.866333,9.494799 5.866333,9.494799 C5.866333,9.494799 3.0849915,9.494799 3.0849915,9.494799 C2.6790771,9.494799 2.347351,9.352276 2.0903015,9.067331 C1.8060303,8.809462 1.663971,8.477009 1.663971,8.069874 C1.663971,7.676422 1.8060303,7.3371277 2.0903015,7.0521812 C2.3609924,6.7807255 2.692566,6.645046 3.0849915,6.645046 C3.0849915,6.645046 6.1506042,6.645046 6.1506042,6.645046 C6.1506042,6.645046 6.475464,3.2661629 6.475464,3.2661629 C6.5294495,2.8590279 6.7055054,2.5333195 7.003235,2.289136 C7.287506,2.058442 7.632538,1.9566822 8.038605,1.9837599 C8.4175415,1.9973469 8.742432,2.1669464 9.013062,2.4926548 C9.243256,2.7776012 9.3446045,3.1304836 9.317657,3.5511093 C9.317657,3.5511093 9.013062,6.645046 9.013062,6.645046 C9.013062,6.645046 12.971985,6.645046 12.971985,6.645046 C12.971985,6.645046 13.317017,3.2661629 13.317017,3.2661629 C13.330597,2.8997898 13.506531,2.5740814 13.844879,2.289136 C14.129089,2.072029 14.474213,1.9701729 14.880249,1.9837599 C15.245636,1.9973469 15.563721,2.1669464 15.834442,2.4926548 C16.091583,2.8183632 16.193054,3.1711483 16.139069,3.5511093 C16.139069,3.5511093 15.834442,6.645046 15.834442,6.645046 C15.834442,6.645046 18.575104,6.645046 18.575104,6.645046 C18.954224,6.645046 19.29248,6.7807255 19.59021,7.0521812 C19.860931,7.3507156 19.996277,7.689913 19.996277,8.069874 C19.996277,8.463421 19.860931,8.795876 19.59021,9.067331 C19.305939,9.352276 18.967682,9.494799 18.575104,9.494799 C18.575104,9.494799 15.550262,9.494799 15.550262,9.494799 C15.550262,9.494799 15.144196,13.504667 15.144196,13.504667 ZM8.322876,13.504667 C8.322876,13.504667 12.281647,13.504667 12.281647,13.504667 C12.281647,13.504667 12.687714,9.494799 12.687714,9.494799 C12.687714,9.494799 8.708618,9.494799 8.708618,9.494799 C8.708618,9.494799 8.322876,13.504667 8.322876,13.504667 Z"/>
</svg>