<svg xmlns="http://www.w3.org/2000/svg"
 xmlns:xlink="http://www.w3.org/1999/xlink"
 width="20px" height="14px"  viewBox="0 0 20 14">
<path fill-rule="evenodd"  fill="#55acee"
 d="M7.0779877,6.1222534 C7.0779877,6.2938843 7.015671,6.4398193 6.8909607,6.560852 C6.766083,6.681885 6.610214,6.7423706 6.423004,6.7423706 C6.423004,6.7423706 5.1753845,6.7423706 5.1753845,6.7423706 C5.1753845,6.7423706 5.1753845,7.876587 5.1753845,7.876587 C5.1753845,8.048279 5.112976,8.194214 4.9881744,8.315186 C4.852478,8.446411 4.7020264,8.51178 4.5359344,8.51178 C4.348831,8.51178 4.19751,8.446411 4.083618,8.315186 C3.947998,8.204468 3.8808746,8.058105 3.8808746,7.876587 C3.8808746,7.876587 3.8808746,6.7423706 3.8808746,6.7423706 C3.8808746,6.7423706 2.6332397,6.7423706 2.6332397,6.7423706 C2.4562683,6.7423706 2.3057098,6.681885 2.1809998,6.560852 C2.0561981,6.4501343 1.9938049,6.303772 1.9938049,6.1222534 C1.9938049,5.940796 2.0561981,5.789612 2.1809998,5.668579 C2.3158417,5.5578613 2.466385,5.5021973 2.6332397,5.5021973 C2.6332397,5.5021973 3.8808746,5.5021973 3.8808746,5.5021973 C3.8808746,5.5021973 3.8808746,4.367981 3.8808746,4.367981 C3.8808746,4.1966553 3.947998,4.04541 4.083618,3.9142456 C4.2084045,3.793335 4.3589478,3.732788 4.5359344,3.732788 C4.691803,3.732788 4.842346,3.793335 4.9881744,3.9142456 C5.112976,4.055664 5.1753845,4.206909 5.1753845,4.367981 C5.1753845,4.367981 5.1753845,5.5021973 5.1753845,5.5021973 C5.1753845,5.5021973 6.423004,5.5021973 6.423004,5.5021973 C6.599991,5.5021973 6.755951,5.5578613 6.8909607,5.668579 C7.015671,5.8100586 7.0779877,5.9612427 7.0779877,6.1222534 ZM17.324448,9.751953 C17.584183,9.883118 17.761078,10.064941 17.854721,10.296326 C18.020798,10.700134 18.051956,11.128235 17.948273,11.581848 C17.906982,11.733093 17.885864,11.8237915 17.885864,11.854126 C17.885864,11.854126 17.854721,11.914612 17.854721,11.914612 C17.854721,11.914612 17.807846,11.959961 17.807846,11.959961 C17.77678,11.990173 17.72992,12.00531 17.667511,12.00531 C17.667511,12.00531 6.033081,12.00531 6.033081,12.00531 C5.980896,12.00531 5.9395294,11.990173 5.908371,11.959961 C5.908371,11.959961 5.8615875,11.914612 5.8615875,11.914612 C5.8404846,11.8949585 5.824951,11.874573 5.8148193,11.854126 C5.8148193,11.8237915 5.793701,11.733093 5.752411,11.581848 C5.7001495,11.411011 5.6845245,11.209045 5.7056427,10.976868 C5.7056427,10.382568 5.9286194,9.973877 6.376236,9.751953 C6.376236,9.751953 6.376236,9.736816 6.376236,9.736816 C6.376236,9.736816 6.391861,9.736816 6.391861,9.736816 C6.516571,9.65625 6.9431458,9.520203 7.6706543,9.328491 C8.086243,9.217651 8.772537,9.046387 9.729294,8.814209 C10.082581,9.2074585 10.467697,9.489868 10.883453,9.661133 C11.216309,9.802612 11.538437,9.872864 11.850342,9.872864 C12.15213,9.872864 12.47966,9.802612 12.8329315,9.661133 C13.24852,9.489868 13.628326,9.2074585 13.971313,8.814209 C14.928146,9.046387 15.614365,9.217651 16.030045,9.328491 C16.757538,9.520203 17.184113,9.65625 17.308838,9.736816 C17.308838,9.736816 17.324448,9.736816 17.324448,9.736816 C17.324448,9.736816 17.324448,9.751953 17.324448,9.751953 ZM9.479782,6.3189087 C9.396362,6.3189087 9.302795,6.2837524 9.199036,6.2130737 C8.970551,6.0618286 8.793564,5.8149414 8.668777,5.471985 C8.491791,5.058716 8.4505005,4.7158203 8.544067,4.4435425 C8.606461,4.2318115 8.700012,4.116211 8.824722,4.095764 C8.824722,4.095764 8.887207,4.0806274 8.887207,4.0806274 C8.887207,4.0806274 8.933899,3.7025146 8.933899,3.7025146 C8.965149,3.4204712 9.032959,3.1331177 9.136719,2.8405151 C9.407257,1.9935913 9.832977,1.539856 10.415512,1.4793701 C10.633865,1.3081055 10.914612,1.1768799 11.25769,1.0861816 C11.507187,1.0358276 11.762192,1.010498 12.021835,1.010498 C12.021835,1.010498 12.05307,1.010498 12.05307,1.010498 C12.05307,1.010498 12.08432,1.010498 12.08432,1.010498 C12.08432,1.010498 12.1154785,1.010498 12.1154785,1.010498 C12.1154785,1.010498 12.146637,1.010498 12.146637,1.010498 C12.791565,1.020813 13.300705,1.1920776 13.675018,1.5247803 C14.319946,2.1096191 14.683273,2.805359 14.766693,3.6118164 C14.766693,3.6118164 14.813477,4.0806274 14.813477,4.0806274 C14.834595,4.0806274 14.86026,4.0858765 14.891495,4.095764 C14.943771,4.105957 14.99054,4.1362305 15.031921,4.1864624 C15.177658,4.3479614 15.2291565,4.6001587 15.187866,4.942688 C15.125473,5.3358154 14.99527,5.6586914 14.797943,5.9105225 C14.600616,6.1827393 14.40802,6.3189087 14.22081,6.3189087 C14.189743,6.409668 14.137482,6.5408325 14.064941,6.712097 C13.961182,6.9745483 13.805222,7.261841 13.597076,7.5741577 C13.045792,8.411194 12.4639435,8.829407 11.850342,8.829407 C11.49707,8.829407 11.169617,8.698608 10.867752,8.436218 C10.337585,7.9624023 9.932022,7.3877563 9.651367,6.712097 C9.651367,6.712097 9.479782,6.3189087 9.479782,6.3189087 Z"/>
</svg>