<svg xmlns="http://www.w3.org/2000/svg"
 xmlns:xlink="http://www.w3.org/1999/xlink"
 width="24px" height="22px"  viewBox="0 0 24 22">
<path fill-rule="evenodd"  fill="#66757f"
 d="M13.278656,2.3052654 C13.278656,2.3052654 22.605957,10.783264 22.605957,10.783264 C22.839325,11.003304 22.969711,11.2713375 22.997086,11.587662 C22.997086,11.9177685 22.887314,12.199684 22.667664,12.433409 C22.544159,12.557163 22.406921,12.639664 22.256027,12.680916 C22.09114,12.749733 21.940247,12.784142 21.803009,12.784142 C21.638214,12.784142 21.500977,12.756577 21.39119,12.701639 C21.240051,12.646605 21.10289,12.570946 20.979294,12.474659 C20.979294,12.474659 20.340973,11.876518 20.340973,11.876518 C20.340973,11.876518 18.137863,20.086285 18.137863,20.086285 C18.083023,20.320107 17.945694,20.533205 17.726044,20.725777 C17.547699,20.890781 17.300674,20.973284 16.98491,20.973284 C16.98491,20.973284 7.945816,20.973284 7.945816,20.973284 C7.6437836,20.973284 7.403534,20.890781 7.2250977,20.725777 C7.0054626,20.533205 6.86821,20.320107 6.8133698,20.086285 C6.8133698,20.086285 4.6101837,11.876518 4.6101837,11.876518 C4.6101837,11.876518 3.9512634,12.474659 3.9512634,12.474659 C3.690506,12.680916 3.4090576,12.777201 3.1071167,12.763418 C2.7776031,12.763418 2.4962463,12.653448 2.2628784,12.433409 C2.0432434,12.199684 1.9471893,11.9177685 1.9746552,11.587662 C1.9746552,11.28512 2.0913086,11.016987 2.3246765,10.783264 C2.3246765,10.783264 11.651978,2.3052654 11.651978,2.3052654 C11.885269,2.085227 12.159927,1.975256 12.475708,1.975256 C12.777573,1.975256 13.045273,2.085227 13.278656,2.3052654 ZM12.475708,12.866644 C13.162003,12.866644 13.717926,12.639664 14.143478,12.185902 C14.610138,11.745726 14.84343,11.195679 14.84343,10.535561 C14.84343,9.916891 14.610138,9.373686 14.143478,8.906139 C13.69046,8.452377 13.134537,8.2253 12.475708,8.2253 C11.816772,8.2253 11.260849,8.452377 10.8077545,8.906139 C10.341095,9.346218 10.107727,9.889423 10.107727,10.535561 C10.107727,11.2095585 10.341095,11.759705 10.8077545,12.185902 C11.233307,12.639664 11.78923,12.866644 12.475708,12.866644 ZM12.475708,17.487265 C12.791382,17.487265 13.072739,17.377197 13.319763,17.157158 C13.539398,16.950901 13.649185,16.675829 13.649185,16.332037 C13.649185,15.988243 13.539398,15.713268 13.319763,15.506916 C13.072739,15.286974 12.791382,15.176907 12.475708,15.176907 C12.159927,15.176907 11.878494,15.286974 11.631378,15.506916 C11.398102,15.740738 11.281448,16.01581 11.281448,16.332037 C11.281448,16.648361 11.398102,16.923433 11.631378,17.157158 C11.878494,17.377197 12.159927,17.487265 12.475708,17.487265 Z"/>
</svg>