<svg xmlns="http://www.w3.org/2000/svg"
 xmlns:xlink="http://www.w3.org/1999/xlink"
 width="24px" height="20px"  viewBox="0 0 24 20">
<path fill-rule="evenodd"  fill="#66757f"
 d="M20.870514,15.069181 C20.870514,15.069181 20.891815,15.089514 20.891815,15.089514 C21.329376,15.320599 21.61972,15.612778 21.760681,15.964977 C22.04358,16.657059 22.092316,17.343178 21.908997,18.021084 C21.908997,18.021084 21.802979,18.489315 21.802979,18.489315 C21.789246,18.557447 21.746948,18.611406 21.675873,18.652168 C21.662048,18.666344 21.63028,18.727438 21.580414,18.835356 C21.53064,18.944252 21.492523,18.99821 21.463959,18.99821 C21.463959,18.99821 2.517517,18.99821 2.517517,18.99821 C2.4888306,18.99821 2.449707,18.944252 2.40094,18.835356 C2.3511658,18.727438 2.3194275,18.666344 2.305603,18.652168 C2.2345276,18.611406 2.1921997,18.557447 2.1784058,18.489315 C2.1784058,18.489315 2.0723877,18.021084 2.0723877,18.021084 C2.0014038,17.70955 1.9738464,17.39 1.9876709,17.064293 C2.0152283,16.087069 2.3829346,15.429493 3.0896606,15.089514 C3.0896606,15.089514 3.1109314,15.069181 3.1109314,15.069181 C3.3789978,14.906326 4.070862,14.682379 5.187805,14.397432 C6.9817505,13.963318 8.105011,13.6986065 8.557495,13.603493 C9.122253,14.227932 9.736816,14.676317 10.401245,14.94709 C10.923676,15.178078 11.45343,15.293131 11.990723,15.293131 C12.528015,15.293131 13.057678,15.178078 13.580231,14.94709 C14.244568,14.676317 14.859192,14.227932 15.42395,13.603493 C15.876465,13.6986065 16.999725,13.963318 18.79367,14.397432 C19.909485,14.682379 20.602478,14.906326 20.870514,15.069181 ZM15.847778,9.552277 C15.847778,9.552277 15.593567,10.183361 15.593567,10.183361 C15.42395,10.563517 15.169647,11.025196 14.830536,11.5677185 C13.926636,12.924999 12.979401,13.603493 11.990723,13.603493 C11.397369,13.603493 10.860077,13.39323 10.380127,12.972408 C9.518555,12.212488 8.861603,11.282675 8.40918,10.183361 C8.40918,10.183361 8.133667,9.552277 8.133667,9.552277 C7.992737,9.552277 7.84433,9.49118 7.6885376,9.369089 C7.320862,9.124807 7.0241394,8.738005 6.7984924,8.208679 C6.529236,7.5572624 6.459381,7.0009575 6.5865784,6.5393753 C6.6851196,6.2003727 6.8408813,6.017185 7.0527954,5.9897175 C7.0527954,5.9897175 7.158722,5.969385 7.158722,5.969385 C7.158722,5.969385 7.2435303,5.3383007 7.2435303,5.3383007 C7.285919,4.8904037 7.3981934,4.42931 7.5826416,3.9539433 C8.020294,2.6241302 8.713196,1.8978348 9.659485,1.7757435 C10.027191,1.4637203 10.485962,1.246418 11.036987,1.1242294 C11.503204,1.0428019 11.913391,1.0021372 12.266235,1.0021372 C12.266235,1.0021372 12.329834,1.0021372 12.329834,1.0021372 C12.329834,1.0021372 12.393372,1.0021372 12.393372,1.0021372 C12.393372,1.0021372 12.4357605,1.0021372 12.4357605,1.0021372 C12.4357605,1.0021372 12.478149,1.0021372 12.478149,1.0021372 C13.53775,1.0428019 14.356903,1.3211985 14.936523,1.8367405 C15.996185,2.8006687 16.597015,3.9269638 16.737946,5.216112 C16.737946,5.216112 16.822754,5.969385 16.822754,5.969385 C16.851227,5.969385 16.893738,5.9765205 16.94986,5.9897175 C17.034668,6.017185 17.112,6.064499 17.182983,6.1322403 C17.408691,6.376522 17.487152,6.77701 17.416168,7.333313 C17.331299,7.9715347 17.119385,8.493723 16.780334,8.90086 C16.441223,9.335463 16.130768,9.552277 15.847778,9.552277 Z"/>
</svg>