<svg xmlns="http://www.w3.org/2000/svg"
 xmlns:xlink="http://www.w3.org/1999/xlink"
 width="16px" height="16px"  viewBox="0 0 16 16">
<path fill-rule="evenodd"  fill="#ffffff"
 d="M12.483276,10.822067 C12.483276,10.822067 13.654785,11.992643 13.654785,11.992643 C13.884888,12.22275 14.000244,12.497824 14.000244,12.818155 C14.000244,13.147186 13.884888,13.426268 13.654785,13.656082 C13.539551,13.771233 13.412476,13.853149 13.272583,13.9025135 C13.116455,13.967812 12.968506,14.001047 12.828491,14.001047 C12.688599,14.001047 12.540527,13.967812 12.3845215,13.9025135 C12.228516,13.853149 12.10083,13.771233 12.002197,13.656082 C12.002197,13.656082 10.818237,12.485506 10.818237,12.485506 C10.670288,12.329594 10.575928,12.169378 10.534546,12.004959 C10.477173,11.79147 10.464844,11.614931 10.497559,11.475048 C10.497559,11.475048 9.942505,10.920601 9.942505,10.920601 C9.539795,11.224609 9.074951,11.471041 8.54895,11.659897 C8.047485,11.832428 7.517212,11.918644 6.9578857,11.918644 C6.2838135,11.918644 5.650635,11.795479 5.0585938,11.549046 C4.425293,11.286289 3.8908691,10.924902 3.4553223,10.464687 C2.994629,10.0294 2.6329346,9.495579 2.369995,8.862831 C2.123291,8.271435 2.0,7.638981 2.0,6.9652767 C2.0,5.593626 2.4848633,4.42305 3.4553223,3.4536476 C4.425293,2.4844398 5.5932617,1.999691 6.9578857,1.999691 C8.314575,1.999691 9.486206,2.4844398 10.4729,3.4536476 C11.442871,4.439375 11.928223,5.609951 11.928223,6.9652767 C11.928223,7.4748573 11.841797,8.00037 11.669189,8.5425 C11.529175,8.986095 11.282593,9.454327 10.929199,9.947189 C10.929199,9.947189 11.471924,10.489321 11.471924,10.489321 C11.693848,10.472996 11.874512,10.485313 12.014526,10.526272 C12.19519,10.592253 12.351807,10.690786 12.483276,10.822067 ZM10.324829,8.345335 C10.505493,7.9263706 10.596191,7.466547 10.596191,6.9652767 C10.596191,5.954916 10.24292,5.096756 9.535522,4.390011 C8.828247,3.6837559 7.9692383,3.3303833 6.9578857,3.3303833 C5.95459,3.3303833 5.099365,3.6837559 4.392578,4.390011 C3.677246,5.1046734 3.31958,5.9632263 3.31958,6.9652767 C3.31958,7.466547 3.409912,7.9263706 3.5909424,8.345335 C3.7799072,8.797241 4.0428467,9.19157 4.380249,9.528227 C4.725586,9.873291 5.1239014,10.140347 5.57666,10.329205 C5.9958496,10.509947 6.456543,10.600269 6.9578857,10.600269 C7.4592285,10.600269 7.9279785,10.509947 8.363892,10.329205 C8.799927,10.148657 9.190186,9.881599 9.535522,9.528227 C9.864258,9.207895 10.127563,8.813564 10.324829,8.345335 Z"/>
</svg>