<svg xmlns="http://www.w3.org/2000/svg"
 xmlns:xlink="http://www.w3.org/1999/xlink"
 width="23px" height="22px"  viewBox="0 0 23 22">
<path fill-rule="evenodd"  fill="#a3acb2"
 d="M19.550415,12.343966 C19.550415,12.343966 21.32666,13.39724 21.32666,13.39724 C21.450562,13.466446 21.561157,13.562439 21.657104,13.686291 C21.822266,13.906818 21.904907,14.161364 21.904907,14.450415 C21.904907,14.574364 21.87085,14.718939 21.801636,14.884138 C21.801636,14.884138 21.615845,15.37974 21.615845,15.37974 C21.533081,15.5728 21.381348,15.744743 21.161377,15.896063 C20.954834,16.033894 20.741089,16.102514 20.52124,16.102514 C20.52124,16.102514 20.459229,16.102514 20.459229,16.102514 C20.459229,16.102514 20.355835,16.102514 20.355835,16.102514 C20.328003,16.102514 20.273315,16.089123 20.190796,16.061264 C20.190796,16.061264 18.228516,15.503689 18.228516,15.503689 C17.87024,15.971918 17.588257,16.309063 17.381714,16.515614 C17.037964,16.846014 16.700317,17.114439 16.369873,17.320988 C16.369873,17.320988 16.906738,19.30349 16.906738,19.30349 C16.975952,19.607105 16.94812,19.888924 16.824219,20.150215 C16.700317,20.412483 16.48645,20.598309 16.18396,20.70779 C16.18396,20.70779 15.688232,20.914242 15.688232,20.914242 C15.674805,20.928806 15.660278,20.934963 15.646851,20.934963 C15.619019,20.949432 15.598389,20.95559 15.584961,20.95559 C15.474487,20.983547 15.399048,20.996937 15.357788,20.996937 C15.357788,20.996937 15.254395,20.996937 15.254395,20.996937 C15.02002,20.996937 14.828003,20.934963 14.676147,20.811111 C14.456177,20.714924 14.297119,20.577682 14.201172,20.398014 C14.201172,20.398014 13.189209,18.621965 13.189209,18.621965 C12.858643,18.663315 12.665649,18.683939 12.61084,18.683939 C12.541626,18.698406 12.4383545,18.704565 12.301025,18.704565 C12.246338,18.719032 12.135742,18.725288 11.970581,18.725288 C11.818848,18.725288 11.715454,18.719032 11.660767,18.704565 C11.482056,18.704565 11.358154,18.698406 11.28894,18.683939 C11.206421,18.683939 11.095825,18.670547 10.958496,18.642689 C10.917114,18.642689 10.862549,18.636433 10.793213,18.621965 C10.724121,18.608574 10.669434,18.60134 10.628052,18.60134 C10.628052,18.60134 9.574829,20.356762 9.574829,20.356762 C9.47876,20.53643 9.340332,20.67377 9.161621,20.769764 C8.98291,20.880222 8.782715,20.934963 8.562744,20.934963 C8.562744,20.934963 8.459351,20.934963 8.459351,20.934963 C8.390259,20.934963 8.342773,20.928806 8.314819,20.914242 C8.301514,20.914242 8.2323,20.893711 8.108398,20.852364 C8.108398,20.852364 7.592041,20.62519 7.592041,20.62519 C7.357544,20.529198 7.1644287,20.336136 7.013672,20.04699 C6.8619385,19.785698 6.8339844,19.510038 6.9311523,19.22089 C6.9311523,19.22089 7.4680176,17.259014 7.4680176,17.259014 C6.98584,16.860481 6.6625977,16.571331 6.4973145,16.391665 C6.1256104,16.019915 5.8498535,15.689514 5.6711426,15.400364 C5.6711426,15.400364 3.6678467,15.916689 3.6678467,15.916689 C3.6534424,15.930668 3.6326904,15.937315 3.605957,15.937315 C3.605957,15.937315 3.5231934,15.937315 3.5231934,15.937315 C3.5089111,15.951294 3.4819336,15.958038 3.4406738,15.958038 C3.4406738,15.958038 3.378662,15.958038 3.378662,15.958038 C3.1029053,15.958038 2.8829346,15.896063 2.7177734,15.772114 C2.4832764,15.593521 2.331543,15.414343 2.2634277,15.235165 C2.2634277,15.235165 2.0775146,14.718939 2.0775146,14.718939 C1.9680176,14.416397 1.9608154,14.127247 2.0568848,13.851589 C2.152832,13.590298 2.331543,13.383749 2.593872,13.2320385 C2.593872,13.2320385 4.369995,12.24074 4.369995,12.24074 C4.3007812,11.882969 4.2668457,11.442596 4.2668457,10.919041 C4.2668457,10.492647 4.3079834,10.072315 4.390747,9.659315 C4.390747,9.659315 2.6351318,8.606138 2.6351318,8.606138 C2.3460693,8.4135685 2.1662598,8.193041 2.0981445,7.94524 C2.015625,7.6840477 2.0289307,7.408291 2.1395264,7.11924 C2.1395264,7.11924 2.3253174,6.623541 2.3253174,6.623541 C2.4906006,6.334488 2.6899414,6.127939 2.9243164,6.00399 C3.1989746,5.8801384 3.4675293,5.859514 3.7298584,5.942114 C3.7298584,5.942114 5.7331543,6.4789658 5.7331543,6.4789658 C5.953125,6.1899147 6.2351074,5.859514 6.579956,5.4877644 C6.8825684,5.1712456 7.2130127,4.9028187 7.571411,4.6823883 C7.571411,4.6823883 7.0756836,2.699791 7.0756836,2.699791 C7.0064697,2.4385986 7.0405273,2.1561937 7.178955,1.8530655 C7.3029785,1.5778952 7.4959717,1.3988142 7.757324,1.3162136 C7.757324,1.3162136 8.25293,1.0890388 8.25293,1.0890388 C8.404785,1.034298 8.55542,1.0064392 8.707275,1.0064392 C8.817871,1.0064392 8.947876,1.0270653 9.099731,1.0683155 C9.388916,1.1788731 9.595337,1.3574657 9.71936,1.6052656 C9.71936,1.6052656 10.752075,3.3813152 10.752075,3.3813152 C10.793213,3.3679228 10.848022,3.3606892 10.917114,3.3606892 C10.98645,3.3606892 11.033936,3.3539448 11.06189,3.3399658 C11.1311035,3.3265743 11.227051,3.3193398 11.350952,3.3193398 C11.433472,3.3193398 11.544067,3.3162117 11.6813965,3.308979 C11.818848,3.302332 11.915894,3.2987146 11.970581,3.2987146 C11.970581,3.2987146 12.321655,3.2987146 12.321655,3.2987146 C12.321655,3.2987146 13.003296,3.3606892 13.003296,3.3606892 C13.044556,3.37457 13.099243,3.3849316 13.168457,3.391676 C13.237671,3.3989105 13.292358,3.4019403 13.33374,3.4019403 C13.33374,3.4019403 14.366455,1.6466141 14.366455,1.6466141 C14.476807,1.522665 14.5802,1.4194393 14.676147,1.3368397 C14.869263,1.1581497 15.130493,1.0683155 15.46106,1.0683155 C15.598389,1.0683155 15.729492,1.0962734 15.853516,1.1509161 C15.853516,1.1509161 16.349121,1.3780909 16.349121,1.3780909 C16.638306,1.4886475 16.844849,1.6744738 16.96875,1.9357643 C17.092651,2.252674 17.120483,2.5418243 17.05127,2.803114 C17.05127,2.803114 16.493774,4.764988 16.493774,4.764988 C16.810669,4.9993 17.141113,5.2812157 17.485107,5.611616 C17.69165,5.832144 17.960083,6.1625443 18.290527,6.602915 C18.290527,6.602915 20.273315,6.08659 20.273315,6.08659 C20.575806,6.00399 20.858887,6.031948 21.120117,6.1691914 C21.340088,6.279747 21.526001,6.4929447 21.677734,6.8094635 C21.677734,6.8094635 21.884277,7.305065 21.884277,7.305065 C21.953491,7.429014 21.987549,7.566843 21.987549,7.7180653 C21.987549,7.869873 21.959595,8.007214 21.904907,8.131165 C21.781006,8.434193 21.602295,8.654623 21.36792,8.7919655 C21.36792,8.7919655 19.571045,9.80389 19.571045,9.80389 C19.625854,10.065668 19.653687,10.485413 19.653687,11.063614 C19.653687,11.573193 19.619629,12.000172 19.550415,12.343966 ZM10.049805,15.565565 C10.24292,15.662144 10.55896,15.751488 10.999878,15.834089 C11.30249,15.916689 11.626587,15.958038 11.970581,15.958038 C12.424927,15.958038 12.907227,15.889318 13.41626,15.751488 C14.394287,15.421089 15.179077,14.89802 15.770752,14.181988 C16.542236,13.287268 16.927368,12.227348 16.927368,11.00164 C16.927368,10.38209 16.810669,9.762541 16.576294,9.14299 C16.093994,7.9178696 15.205933,7.015915 13.912109,6.4377136 C13.829346,6.396366 13.519653,6.300373 12.982544,6.1485653 C12.693481,6.0938244 12.355713,6.0659657 11.970581,6.0659657 C10.992554,6.0659657 10.083862,6.334488 9.244263,6.8713417 C8.446045,7.3948975 7.8398438,8.131165 7.42688,9.081114 C7.1644287,9.714544 7.034424,10.334095 7.034424,10.939665 C7.034424,11.587172 7.151001,12.227348 7.385498,12.860289 C7.619873,13.43849 7.977173,13.975439 8.459351,14.471138 C8.859009,14.89802 9.388916,15.263023 10.049805,15.565565 Z"/>
</svg>