<svg width="16" height="17" xmlns="http://www.w3.org/2000/svg" xmlns:xlink="http://www.w3.org/1999/xlink" xmlns:svgjs="http://svgjs.com/svgjs" viewBox="0.04 0 15.92 17"><svg xmlns="http://www.w3.org/2000/svg" width="16" height="17" viewBox="2.001 1.988 15.01 16.029" fill="#0084b4"><path fill="#0084B4" paint-order="stroke fill markers" fill-rule="evenodd" d="M10.561 7.017l2.007 1.92c.687.703 1.043 1.47 1.067 2.298.025.916-.276 1.657-.902 2.222l-3.828 3.728c-.65.59-1.417.866-2.3.828a3.517 3.517 0 0 1-2.375-1.016l-1.197-1.168a3.027 3.027 0 0 1-1.03-2.24c-.025-.854.276-1.589.902-2.204l1.564-1.487c.05.25.202.583.46.998.172.3.399.596.681.885l-1.122 1.13a.82.82 0 0 0-.277.715c0 .213.123.446.369.697l1.233 1.167c.208.201.46.326.754.377.32.05.571-.02.755-.207l3.865-3.729c.197-.25.27-.502.221-.753a1.601 1.601 0 0 0-.423-.734l-1.97-1.92h-.018-.019l1.583-1.526v.019zm6.442-.584c.062.829-.227 1.57-.865 2.222h-.018l-1.565 1.525c-.171-.49-.319-.835-.441-1.035-.27-.402-.503-.697-.7-.885l1.16-1.13c.184-.239.251-.484.202-.735a1.322 1.322 0 0 0-.405-.753l-1.196-1.148c-.245-.239-.479-.364-.7-.377-.27-.025-.533.056-.79.245l-.093.113-.534.508-.073.094-3.13 3.032c-.22.251-.306.49-.257.716.061.276.184.508.368.696 0 .013.006.019.019.019h-.019l.792.734 1.27 1.262-1.547 1.506L7.175 11.8l-.755-.753h-.018c-.638-.615-.976-1.374-1.013-2.278-.036-.816.264-1.544.902-2.184l2.227-2.147 1.62-1.582a3.05 3.05 0 0 1 2.264-.866c.859.025 1.638.352 2.338.98l1.196 1.167c.65.653 1.006 1.418 1.067 2.297z"/></svg></svg>